<?xml version="1.0" standalone="no"?>
<!DOCTYPE svg PUBLIC "-//W3C//DTD SVG 20010904//EN"
 "http://www.w3.org/TR/2001/REC-SVG-20010904/DTD/svg10.dtd">
<svg version="1.0" xmlns="http://www.w3.org/2000/svg"
 width="559.000000pt" height="447.000000pt" viewBox="0 0 559.000000 447.000000"
 preserveAspectRatio="xMidYMid meet">

<g transform="translate(0.000000,447.000000) scale(0.100000,-0.100000)"
fill="#000000" stroke="none">
<path d="M2570 3250 c-11 -11 -20 -24 -20 -30 0 -7 240 -10 700 -10 680 0 700
1 700 19 0 10 -8 23 -17 27 -10 5 -316 10 -680 12 -655 3 -662 3 -683 -18z
m1340 -16 c0 -17 -22 -14 -28 4 -2 7 3 12 12 12 9 0 16 -7 16 -16z"/>
<path d="M2185 3019 c-42 -32 -52 -52 -54 -108 -1 -34 -1 -34 37 -26 20 4 50
6 65 6 18 -1 36 8 51 24 32 35 43 32 57 -17 15 -53 18 -56 28 -39 7 11 11 9
20 -7 8 -15 7 -32 -4 -69 -19 -64 -19 -83 3 -83 11 0 13 3 6 8 -9 5 -4 31 17
92 38 112 38 160 0 202 -23 26 -37 32 -77 35 -27 2 -62 5 -79 8 -23 3 -40 -3
-70 -26z"/>
<path d="M950 3020 c0 -5 7 -10 15 -10 8 0 15 5 15 10 0 6 -7 10 -15 10 -8 0
-15 -4 -15 -10z"/>
<path d="M1730 3020 c0 -5 7 -10 15 -10 8 0 15 5 15 10 0 6 -7 10 -15 10 -8 0
-15 -4 -15 -10z"/>
<path d="M950 2950 c0 -5 5 -10 10 -10 6 0 10 5 10 10 0 6 -4 10 -10 10 -5 0
-10 -4 -10 -10z"/>
<path d="M1730 2950 c0 -5 5 -10 10 -10 6 0 10 5 10 10 0 6 -4 10 -10 10 -5 0
-10 -4 -10 -10z"/>
<path d="M940 2880 c0 -5 7 -10 15 -10 8 0 15 5 15 10 0 6 -7 10 -15 10 -8 0
-15 -4 -15 -10z"/>
<path d="M1720 2880 c0 -5 5 -10 10 -10 6 0 10 5 10 10 0 6 -4 10 -10 10 -5 0
-10 -4 -10 -10z"/>
<path d="M2140 2831 c0 -5 13 -11 30 -13 24 -4 27 -2 19 9 -13 15 -49 18 -49
4z"/>
<path d="M2255 2820 c3 -5 17 -10 31 -10 13 0 24 5 24 10 0 6 -14 10 -31 10
-17 0 -28 -4 -24 -10z"/>
<path d="M930 2810 c0 -5 7 -10 15 -10 8 0 15 5 15 10 0 6 -7 10 -15 10 -8 0
-15 -4 -15 -10z"/>
<path d="M1710 2810 c0 -5 7 -10 15 -10 8 0 15 5 15 10 0 6 -7 10 -15 10 -8 0
-15 -4 -15 -10z"/>
<path d="M2162 2791 c4 -13 18 -16 19 -4 0 4 -5 9 -11 12 -7 2 -11 -2 -8 -8z"/>
<path d="M2250 2785 c0 -8 5 -15 10 -15 6 0 10 7 10 15 0 8 -4 15 -10 15 -5 0
-10 -7 -10 -15z"/>
<path d="M920 2740 c0 -5 7 -10 15 -10 8 0 15 5 15 10 0 6 -7 10 -15 10 -8 0
-15 -4 -15 -10z"/>
<path d="M1700 2740 c0 -5 7 -10 15 -10 8 0 15 5 15 10 0 6 -7 10 -15 10 -8 0
-15 -4 -15 -10z"/>
<path d="M2110 2561 c-118 -38 -240 -121 -240 -162 0 -11 3 -19 8 -19 4 0 25
-29 47 -65 l39 -65 18 82 c32 151 50 173 171 203 64 16 77 22 77 36 0 14 -60
10 -120 -10z"/>
<path d="M2426 2567 c2 -7 35 -26 72 -41 37 -16 80 -41 95 -55 65 -59 162
-264 191 -400 l14 -66 38 79 c33 69 38 88 38 155 1 66 -3 82 -27 123 -33 57
-92 107 -177 149 -109 54 -257 88 -244 56z"/>
<path d="M2889 2517 c26 -28 31 -32 31 -19 0 4 -13 16 -28 26 l-27 19 24 -26z"/>
<path d="M3921 2533 c-323 -3 -361 -7 -361 -34 0 -5 267 -9 610 -9 523 0 609
2 604 14 -3 8 -13 18 -22 21 -22 9 -406 13 -831 8z m819 -23 c0 -5 -7 -10 -15
-10 -8 0 -15 5 -15 10 0 6 7 10 15 10 8 0 15 -4 15 -10z"/>
<path d="M2960 2430 c6 -11 13 -20 16 -20 2 0 0 9 -6 20 -6 11 -13 20 -16 20
-2 0 0 -9 6 -20z"/>
<path d="M4000 2415 c0 -13 34 -15 250 -15 216 0 250 2 250 15 0 13 -34 15
-250 15 -216 0 -250 -2 -250 -15z"/>
<path d="M887 2413 c-4 -3 -7 -15 -7 -25 0 -17 12 -18 184 -18 102 0 187 4
190 9 4 5 3 16 0 25 -5 14 -31 16 -183 16 -98 0 -181 -3 -184 -7z"/>
<path d="M1284 2406 c-10 -27 6 -36 62 -36 52 0 55 2 52 23 -3 19 -10 22 -56
25 -39 2 -54 -1 -58 -12z"/>
<path d="M2320 2365 c-14 -8 -42 -14 -62 -15 -49 0 -84 -15 -98 -40 -9 -17 -7
-26 14 -51 29 -34 32 -50 15 -81 -15 -27 2 -43 62 -59 61 -16 92 -7 114 35 13
24 29 37 57 45 22 7 42 19 45 28 12 30 -73 153 -105 153 -9 -1 -28 -7 -42 -15z"/>
<path d="M786 2314 c-10 -25 12 -44 53 -44 45 0 64 12 59 36 -5 27 -102 34
-112 8z"/>
<path d="M937 2324 c-13 -13 -7 -42 9 -48 24 -9 337 -7 352 3 8 5 12 17 10 27
-3 18 -16 19 -184 22 -99 1 -183 -1 -187 -4z"/>
<path d="M3002 2275 c0 -16 2 -22 5 -12 2 9 2 23 0 30 -3 6 -5 -1 -5 -18z"/>
<path d="M1820 2249 c0 -39 28 -141 59 -209 l18 -41 6 42 c4 32 0 53 -15 83
-11 22 -31 67 -44 100 -22 59 -23 60 -24 25z"/>
<path d="M4000 2255 c0 -13 34 -15 250 -15 216 0 250 2 250 15 0 13 -34 15
-250 15 -216 0 -250 -2 -250 -15z"/>
<path d="M882 2218 c3 -23 5 -23 184 -26 160 -2 182 0 188 14 3 9 4 20 0 25
-3 5 -88 9 -190 9 l-185 0 3 -22z"/>
<path d="M1283 2224 c-9 -25 11 -35 63 -32 42 3 49 6 52 26 3 21 0 22 -53 22
-41 0 -57 -4 -62 -16z"/>
<path d="M786 2141 c-4 -5 -3 -17 0 -26 5 -12 18 -15 58 -13 44 3 51 6 54 26
3 20 0 22 -52 22 -30 0 -57 -4 -60 -9z"/>
<path d="M933 2135 c-3 -9 -1 -21 4 -26 5 -5 84 -8 189 -7 171 3 179 4 179 23
0 19 -8 20 -183 23 -159 2 -183 0 -189 -13z"/>
<path d="M4007 2103 c-4 -3 -7 -12 -7 -20 0 -17 485 -19 496 -2 3 6 0 15 -7
20 -16 10 -472 12 -482 2z"/>
<path d="M887 2063 c-4 -3 -7 -15 -7 -25 0 -17 12 -18 184 -18 102 0 187 4
190 9 4 5 3 16 0 25 -5 14 -31 16 -183 16 -98 0 -181 -3 -184 -7z"/>
<path d="M1284 2056 c-10 -27 6 -36 62 -36 52 0 55 2 52 23 -3 19 -10 22 -56
25 -39 2 -54 -1 -58 -12z"/>
<path d="M2912 2005 c-3 -5 -11 -19 -18 -30 -13 -20 -11 -20 571 -17 565 2
585 3 585 21 0 10 -8 23 -17 27 -26 13 -1113 11 -1121 -1z m1096 -16 c-2 -6
-8 -10 -13 -10 -5 0 -11 4 -13 10 -2 6 4 11 13 11 9 0 15 -5 13 -11z"/>
<path d="M786 1965 c-10 -28 3 -35 60 -35 52 0 55 2 52 23 -3 19 -10 22 -54
25 -40 2 -53 -1 -58 -13z"/>
<path d="M933 1965 c-3 -9 -1 -21 4 -26 5 -5 84 -8 189 -7 171 3 179 4 179 23
0 19 -8 20 -183 23 -159 2 -183 0 -189 -13z"/>
<path d="M2713 1942 l-53 -26 -2 -170 -3 -171 -155 -6 c-85 -4 -159 -7 -165
-7 -201 1 -421 11 -427 21 -4 7 -8 60 -8 120 0 59 -3 107 -7 107 -20 -1 -154
-50 -205 -75 -72 -35 -88 -53 -95 -103 -8 -56 34 -101 134 -142 48 -20 91 -47
115 -71 22 -22 61 -50 89 -64 27 -14 47 -30 44 -35 -3 -6 6 -10 20 -10 32 0
85 50 85 80 0 21 3 22 63 15 34 -3 70 -9 80 -11 31 -9 18 -34 -27 -54 -85 -36
-70 -43 80 -34 77 5 169 9 206 9 72 0 77 8 19 31 l-38 15 18 37 c11 20 19 43
19 50 0 10 6 12 18 7 9 -5 32 -10 49 -13 23 -3 38 -14 53 -37 22 -36 38 -45
79 -45 38 0 112 58 151 119 24 37 43 53 75 66 74 28 95 50 95 100 0 37 -6 50
-44 92 -25 28 -64 57 -88 67 -24 10 -61 27 -84 37 -23 10 -47 19 -55 19 -37 1
-42 17 -17 51 26 35 42 60 36 57 -2 0 -27 -12 -55 -26z"/>
<path d="M4060 1925 c0 -13 31 -15 220 -15 189 0 220 2 220 15 0 13 -31 15
-220 15 -189 0 -220 -2 -220 -15z"/>
<path d="M2258 1859 c-21 -12 -24 -49 -6 -67 18 -18 56 -14 68 7 14 27 13 37
-6 55 -18 18 -32 20 -56 5z"/>
<path d="M3260 1801 c0 -26 26 -31 167 -31 96 0 128 4 151 17 28 16 31 16 55
0 19 -12 48 -17 101 -17 64 0 81 4 112 25 l37 25 -312 0 c-298 0 -311 -1 -311
-19z"/>
<path d="M3262 1688 c3 -22 7 -23 136 -26 l132 -3 0 26 0 25 -136 0 c-135 0
-135 0 -132 -22z"/>
<path d="M3680 1701 c0 -28 14 -41 46 -41 19 0 34 4 34 9 0 5 3 16 6 25 5 13
-2 16 -40 16 -25 0 -46 -4 -46 -9z"/>
<path d="M3262 1568 c2 -17 11 -24 31 -26 30 -4 32 0 17 29 -15 28 -52 25 -48
-3z"/>
<path d="M3480 1583 c1 -17 28 -43 44 -43 12 0 16 7 14 23 -2 16 -11 23 -30
25 -16 2 -28 0 -28 -5z"/>
<path d="M3688 1565 c-5 -23 -2 -25 28 -25 18 0 36 4 39 10 3 6 -1 7 -9 4 -11
-4 -16 0 -16 15 0 31 -36 28 -42 -4z"/>
<path d="M1561 1534 c0 -11 3 -14 6 -6 3 7 2 16 -1 19 -3 4 -6 -2 -5 -13z"/>
<path d="M3622 1520 c0 -14 2 -19 5 -12 2 6 2 18 0 25 -3 6 -5 1 -5 -13z"/>
<path d="M3328 1462 c-60 -3 -68 -5 -68 -22 0 -19 7 -20 107 -20 58 0 104 1
102 3 -40 31 -80 42 -141 39z"/>
<path d="M3670 1463 c-9 -2 -21 -12 -28 -23 -11 -18 -10 -20 18 -20 16 0 33
-1 37 -2 3 -2 7 7 9 19 4 22 -10 32 -36 26z"/>
<path d="M3544 1444 c3 -9 6 -18 6 -20 0 -2 14 -4 30 -4 28 0 29 2 18 20 -16
25 -63 28 -54 4z"/>
<path d="M2989 1373 c-13 -16 -12 -17 4 -4 16 13 21 21 13 21 -2 0 -10 -8 -17
-17z"/>
<path d="M3628 1384 c-3 -3 -29 -6 -58 -7 -76 -3 -78 -25 -3 -29 l58 -3 -62
-9 c-65 -9 -86 -26 -33 -26 17 0 30 -3 30 -7 0 -7 52 -7 146 0 31 3 17 27 -15
27 -14 0 -33 5 -41 11 -11 7 -1 9 35 5 28 -3 96 -8 153 -12 l102 -7 0 27 0 27
-144 -2 c-80 0 -149 2 -154 5 -5 3 -12 3 -14 0z"/>
<path d="M2605 1183 c4 -10 34 -88 67 -173 33 -85 64 -159 69 -164 24 -25 17
36 -20 174 -23 83 -41 158 -41 166 0 10 -12 14 -41 14 -35 0 -40 -2 -34 -17z"/>
<path d="M2715 1190 c-8 -13 41 -68 51 -58 3 4 2 19 -3 35 -10 30 -36 42 -48
23z"/>
<path d="M1993 1160 c-29 -33 -45 -37 -63 -15 -11 13 -15 12 -29 -8 -25 -31
-34 -61 -19 -54 49 20 48 23 19 -75 -42 -139 -43 -148 -28 -148 8 0 43 68 84
165 38 91 68 165 67 165 -2 0 -16 -13 -31 -30z"/>
<path d="M2248 1183 c6 -2 18 -2 25 0 6 3 1 5 -13 5 -14 0 -19 -2 -12 -5z"/>
<path d="M3418 1165 c-4 -4 -2 -15 3 -24 8 -12 -6 -54 -55 -169 -66 -153 -76
-187 -54 -180 10 4 32 52 122 268 l27 66 67 -11 67 -11 3 -172 c2 -142 5 -172
17 -172 12 0 15 30 17 172 l3 173 47 6 c25 4 55 10 66 13 17 6 27 -13 89 -161
62 -150 93 -203 93 -159 0 8 -30 85 -66 170 -44 103 -63 162 -59 176 8 24 3
24 -61 6 -103 -30 -172 -28 -299 9 -11 3 -24 3 -27 0z"/>
</g>
</svg>
